# xmcd
#
# Track frame offsets:
# 150
# 13360
# 29090
# 43197
# 55072
# 68200
# 82145
# 95430
# 108210
# 120420
# 132157
# 145475
# 156897
# 170930
# 184550
#
# Disc length: 2598 seconds
#
# Revision: 0
# Processed by: cddbd v1.4PL0 Copyright (c) Steve Scherf et al.
# Submitted via: Axialis_AX_CDPlayer 2.6
#
DISCID=d90a240f
DTITLE=Johnny Moore's Three Blazers - Los Angeles Blues (Complete RCA Record
DTITLE=ings, \n1949-50) - Disc 2
DYEAR=1900
DGENRE=
TTITLE0=Rock With It
TTITLE1=Johnny's Guitar Blues
TTITLE2=Driftin' Blues
TTITLE3=Shuffle Shuck
TTITLE4=Cut Off the Fat (Take Out the Bone)
TTITLE5=So Long
TTITLE6=Misery Blues
TTITLE7=Los Angeles Blues
TTITLE8=The Jumping Jack
TTITLE9=Rain-Chick
TTITLE10=Melody
TTITLE11=Three Handed Woman
TTITLE12=Someday You'll Need Me
TTITLE13=Competition Blues
TTITLE14=Wrackin' My Brain Over You
EXTD=
EXTT0=
EXTT1=
EXTT2=
EXTT3=
EXTT4=
EXTT5=
EXTT6=
EXTT7=
EXTT8=
EXTT9=
EXTT10=
EXTT11=
EXTT12=
EXTT13=
EXTT14=
PLAYORDER=
